<svg width="2406" height="3250" viewBox="0 0 2406 3250" fill="none" xmlns="http://www.w3.org/2000/svg">
<path d="M2403.15 1823.66L2406 1834.86C2147.4 2141.37 1286.01 2152.97 910.627 2281.56C839.815 2300.36 669.968 2368.42 643.787 2442.93C567.742 2659.41 1139.86 2836.38 1271.37 2887.37C1591 3011.29 1912.27 3106.07 2222.66 3241.63C2029.57 3251.84 1787.12 3244.83 1588.89 3244.79L1080.94 3243.53C989.768 3244.16 878.764 3258.41 789.563 3242.06C636.97 3214.07 150.285 2869.87 57.4174 2732.53C15.016 2669.82 -11.4539 2591.75 4.88106 2515.85C96.1884 2091.64 1372.51 2071.49 1730.71 2020.1C1961.28 1987.04 2204.13 1952.17 2403.15 1823.66Z" fill="#247FB8"/>
<path d="M1137.08 1105.05C1315.01 1086.6 1460.53 1312.74 1610.25 1377.19C1684.6 1406.65 1783.56 1387.25 1859.5 1402.45C1994.54 1429.49 2003.76 1542.76 2056.22 1641.86C2075.98 1679.19 2096.76 1714.66 2070.55 1759.4C2045.77 1801.64 1966.43 1808.73 1922.92 1817.32C1895.4 1691.78 1821.77 1591.54 1682.2 1587.7C1620.97 1586.43 1561.94 1610.5 1519.08 1654.25C1460.25 1714.82 1452.15 1772.5 1452.29 1850.58C1328.74 1874.53 1146.95 1890.21 1018.04 1904.3L826.3 1926.04C797.692 1812.53 727.07 1718.58 600.959 1712.84C538.945 1710.23 478.783 1734.34 435.709 1779C375.009 1840.92 366.841 1898.6 368.128 1978.29C295.986 1986.37 245.758 1995.91 184.365 1947.3C117.889 1894.68 165.081 1825.56 212.716 1786.16C207.609 1713.67 203.536 1641.1 200.507 1568.54L233.268 1537.38C345.605 1430.68 413.08 1203.43 547.798 1175.05C731.109 1136.37 948.409 1123.18 1137.08 1105.05ZM809.619 1230.31C792.199 1229.4 792.563 1227.78 776.217 1231.58C736.373 1235.5 591.085 1244.21 563.695 1267.84C511.895 1312.62 451.54 1415.36 439.492 1483.14L445.475 1500.99C473.663 1511.52 503.636 1506.73 534.212 1504.87C638.984 1493.59 743.701 1481.79 848.354 1469.44C843.117 1421.34 834.826 1257.23 809.619 1230.31ZM1468.59 1407.96C1381.75 1330.67 1232.56 1174.41 1109.02 1192.19C1041.57 1199.23 972.283 1205.57 905.265 1214.91C918.29 1293.86 931.68 1382.42 947.199 1460.73L1240.43 1431.87C1312.8 1424.07 1396.89 1412.86 1468.59 1407.96Z" fill="#247FB8"/>
<path d="M972.006 3.36671C1254.49 -21.4565 1656.74 87.9319 1628.99 433.517C1606.58 712.629 1209.63 810.18 987.031 786.03C918.631 773.994 772.34 913.313 716.248 960.188C731.304 894.864 740.79 797.946 749.496 729.099C644.467 658.826 530.514 578.734 510.382 444.839C468.198 164.341 749.86 36.7414 972.006 3.36671Z" fill="#247FB8"/>
<path d="M1700.74 284.894C1905.93 323.534 2123.64 468.396 2079.42 715.915C2057.33 839.556 1953.88 916.678 1853.32 980.854C1861.67 1056.31 1869.55 1112.77 1887.56 1185.93C1827.27 1143.06 1719.74 1061.94 1653.74 1024.84C1646.7 1025.87 1639.65 1026.86 1632.61 1027.89C1623.43 1028.6 1614.24 1029.27 1605.05 1029.87C1392.19 1044.2 1240.18 1011.58 1077.34 868.536C1421.84 874.277 1750.3 668.486 1700.74 284.894Z" fill="#53ACDD"/>
<path d="M1633.3 1659.75C1689.92 1641.89 1751.78 1656.03 1795 1696.77C1838.2 1737.47 1856.01 1798.4 1841.52 1855.96C1827.07 1913.56 1782.57 1958.82 1725.24 1974.26C1639.17 1997.42 1550.37 1947.53 1525.36 1861.98C1500.35 1776.46 1548.3 1686.59 1633.3 1659.75Z" fill="#247FB8"/>
<path d="M554.663 1787.47C642.039 1765.54 730.587 1818.83 752.116 1906.32C773.646 1993.78 719.945 2082.1 632.371 2103.2C583.212 2115.08 531.332 2103.4 492.007 2071.61C452.682 2039.78 430.393 1991.52 431.703 1940.96C433.592 1868 483.872 1805.25 554.663 1787.47Z" fill="#247FB8"/>
</svg>
