<svg width="3796" height="1039" viewBox="0 0 3796 1039" fill="none" xmlns="http://www.w3.org/2000/svg">
<path d="M767.846 582.688L768.757 586.268C686.128 684.202 410.9 687.909 290.96 728.995C268.335 735.004 214.066 756.749 205.701 780.556C181.403 849.725 364.205 906.269 406.224 922.562C508.352 962.156 611.001 992.44 710.175 1035.75C648.482 1039.02 571.015 1036.78 507.678 1036.76L345.377 1036.36C316.247 1036.56 280.78 1041.12 252.278 1035.89C203.522 1026.95 48.0184 916.971 18.3458 873.089C4.79787 853.052 -3.65973 828.106 1.55958 803.857C30.7338 668.314 438.54 661.875 552.992 645.456C626.662 634.893 704.255 623.749 767.846 582.688Z" fill="#247FB8"/>
<path d="M363.317 353.081C420.167 347.187 466.665 419.442 514.5 440.036C538.256 449.448 569.878 443.249 594.139 448.107C637.287 456.746 640.235 492.937 656.996 524.6C663.308 536.529 669.949 547.863 661.575 562.157C653.656 575.654 628.306 577.919 614.404 580.664C605.613 540.552 582.084 508.522 537.489 507.295C517.928 506.89 499.066 514.582 485.37 528.56C466.575 547.914 463.987 566.344 464.031 591.289C424.554 598.942 366.468 603.952 325.279 608.455L264.017 615.401C254.876 579.134 232.311 549.115 192.017 547.28C172.202 546.446 152.979 554.15 139.216 568.419C119.821 588.203 117.212 606.634 117.623 632.098C94.5726 634.678 78.5233 637.727 58.9072 622.194C37.667 605.382 52.7456 583.295 67.9658 570.708C66.334 547.547 65.0322 524.36 64.0645 501.173L74.5322 491.217C110.426 457.126 131.986 384.516 175.03 375.446C233.601 363.088 303.032 358.875 363.317 353.081ZM258.687 393.106C253.121 392.815 253.237 392.296 248.014 393.51C235.283 394.762 188.86 397.546 180.109 405.098C163.558 419.405 144.274 452.231 140.425 473.887L142.336 479.592C151.343 482.957 160.92 481.426 170.689 480.831C204.166 477.226 237.624 473.457 271.062 469.51C269.389 454.14 266.74 401.708 258.687 393.106ZM469.239 449.865C441.491 425.173 393.823 375.245 354.35 380.924C332.798 383.176 310.661 385.199 289.247 388.185C293.409 413.408 297.687 441.706 302.646 466.727L396.336 457.505C419.462 455.013 446.329 451.434 469.239 449.865Z" fill="#247FB8"/>
<path d="M945.272 334.777C992.874 335.132 1040.4 335.486 1088.05 336.169C1127.49 336.46 1171.07 341.684 1199.46 372.272C1225.15 399.962 1223.28 444.122 1206.35 475.81C1197.22 492.912 1187.52 496.151 1173.98 507.308C1175.64 508.13 1177.29 508.978 1178.94 509.838C1239.15 541.437 1252.35 591.505 1221.03 651.314C1186.82 703.797 1112.4 705.302 1056.4 703.999C1032.32 703.442 951.117 708.907 937.961 694.082C936.62 681.205 936.519 668.997 936.684 656.082C937.961 554.719 935.064 453.154 937.581 351.867C937.809 342.861 939.972 341.773 945.272 334.777ZM1138.83 623.269C1197.96 535.618 1069.56 545.738 1022.75 546.648L1023 636.095C1060.59 636.955 1107.7 643.154 1138.83 623.269ZM1133.61 444.464C1138.34 394.358 1074.13 401.126 1042.37 401.265C1030.48 402.15 1031.66 400.088 1024.69 406.388C1017.49 429.79 1022.56 455.229 1022 481.249C1046.96 481.578 1090.33 484.133 1112.68 477.012C1124.33 467.803 1132.15 459.96 1133.61 444.464Z" fill="#247FB8"/>
<path d="M1729.22 317.548C1796.98 314.095 1801.37 312.881 1799.79 384.744C1799.23 410.221 1798.88 437.456 1798.23 463.11C1816.82 443.895 1831.43 430.194 1859.71 425.236C1886.09 420.391 1913.28 426.552 1935 442.263C1962.31 462.06 1979.52 498.087 1983.63 531.001C1990.99 590.025 1983.38 628.594 1948.73 675.943C1944.68 679.712 1939.33 684.721 1934.88 687.972C1911.18 705.631 1881.22 712.626 1852.16 707.301C1823.79 701.912 1808.91 689.262 1793.52 666.783C1778.26 711.968 1762.42 704.606 1718.75 703.481L1717.77 435.457C1717.65 401.543 1717.07 363.442 1718.43 329.313C1718.69 322.545 1723.39 321.318 1729.22 317.548ZM1899.52 527.029C1891.64 498.314 1869.38 487.246 1840.6 489.168C1789.37 507.865 1791.59 565.649 1803.5 611.529C1810.18 637.221 1836.26 643.584 1860.46 643.179C1906.81 626.987 1910.92 568.621 1899.52 527.029Z" fill="#247FB8"/>
<path d="M310.572 1.07572C400.829 -6.8557 529.355 28.0957 520.489 138.516C513.329 227.697 386.496 258.866 315.373 251.149C293.518 247.304 246.775 291.819 228.853 306.796C233.664 285.924 236.695 254.957 239.476 232.959C205.918 210.506 169.508 184.915 163.075 142.134C149.597 52.5098 239.593 11.7395 310.572 1.07572Z" fill="#247FB8"/>
<path d="M3227.1 428.221C3297.44 421.997 3355.73 445.919 3374.99 518.756C3396.24 599.12 3369.51 682.153 3283.55 706.137C3251.82 711.146 3222.25 710.526 3193.41 695.398C3103.79 648.404 3103.24 488.219 3192.75 440.453C3203.85 434.533 3215.16 431.484 3227.1 428.221ZM3253.71 466.752C3232.15 468.763 3207.85 474.57 3195.45 493.355C3152.94 557.793 3165.94 660.674 3255.74 668.808C3275.94 666.999 3299.18 660.496 3311 643.166C3352.02 583.029 3342.49 472.356 3253.71 466.752Z" fill="#53ACDD"/>
<path d="M1520.8 426.147C1555.79 421.694 1602.33 425.337 1628.83 450.776C1655.23 474.987 1658.3 511.255 1658.35 545.017C1658.42 597.602 1657.91 650.681 1660.36 703.291C1617.41 705.201 1596.31 715.827 1585.93 667.986C1545.3 713.196 1490.48 723.733 1439.44 688.414C1435.99 684.645 1432.5 680.8 1429.52 676.651C1417.69 660.193 1413.69 637.727 1416.74 617.955C1431.61 521.501 1544.97 553.391 1572.71 530.785C1576.79 527.459 1579.19 520.779 1578.77 515.593C1578.09 507.004 1571.9 499.174 1565.1 494.355C1554.21 486.651 1540.06 484.222 1527.12 487.093C1510.1 490.863 1503.14 500.363 1493.89 514.354C1479.41 513.785 1425.16 515.985 1427.09 495.683C1431.04 454.078 1486.33 430.195 1520.8 426.147ZM1573.78 586.204C1567.28 584.788 1569.65 584.687 1563.3 585.711C1539.46 588.545 1514.34 590.835 1497.38 610.151C1485.51 623.673 1500.97 641.029 1512.73 647.632C1530.7 649.087 1544.15 650.251 1558.91 637.917C1573.16 626.001 1582.89 603.775 1573.78 586.204Z" fill="#247FB8"/>
<path d="M2273.74 425.679C2411.15 414.395 2412.81 496.923 2409.35 604.863C2408.38 634.868 2409.54 672.678 2412.03 702.645C2369.6 704.707 2349.23 715.662 2335.19 669.061C2297.19 715.574 2238.93 722.025 2190.28 687.896C2174.89 670.528 2164.38 647.645 2166.92 624.318C2178.13 521.564 2302.45 549.862 2326.91 530.166C2338.43 488.384 2278.24 458.948 2246.26 514.442C2229.03 512.608 2192.54 514.607 2182.94 504.677C2174.67 457.683 2233.59 432.193 2270.91 425.919L2273.74 425.679ZM2324.43 585.407C2318.08 584.737 2317.9 584.446 2311.74 585.686C2289.02 588.165 2244.32 594.769 2244.89 625.697C2249.81 638.967 2257.24 642.939 2269.55 648.265C2288.11 648.075 2301.27 647.784 2315.31 633.907C2327.61 621.763 2336.91 600.498 2324.43 585.407Z" fill="#247FB8"/>
<path d="M2613.44 329.945C2643.3 326.39 2671.45 328.465 2703.15 338.041C2728.26 345.631 2782.68 377.635 2731.76 402.061C2728.45 403.643 2699.72 388.893 2691.36 384.769C2635.84 357.37 2557.6 374.978 2530.23 434.445C2499.45 501.362 2506.5 620.435 2583.79 653.653C2630.36 673.665 2674.11 665.443 2719.39 649.656C2719.06 617.222 2719.75 583.561 2719.99 551.025C2699.7 551.797 2662.03 554.049 2643.16 549.469C2621.84 505.967 2672.56 509.977 2698.89 510.647C2720.08 511.191 2741.5 511.583 2762.72 512.127C2766.22 554.162 2764.26 623.344 2764.05 667.53C2704.6 715.384 2599.69 725.833 2535.86 681.242C2450.5 621.586 2442.26 470.8 2501.65 390.664C2530.28 352.031 2567.58 336.89 2613.44 329.945Z" fill="#53ACDD"/>
<path d="M3748.11 649.049C3768.92 634.818 3774.92 649.327 3789.41 665.961C3781.7 673.323 3775.95 679.749 3766.59 684.86C3771.11 674.563 3773.41 671.666 3770.84 661.18C3764.9 653.792 3757.31 652.376 3748.11 649.049Z" fill="#41A5E2"/>
<path d="M3652.59 429.106C3721.08 411.03 3780.37 453.23 3792.23 521.337C3795.06 537.541 3799.89 560.69 3790.41 574.921C3774.34 582.953 3633.2 579.778 3605.37 579.702C3615.72 632.275 3636.77 675.297 3701.24 668.935C3719.12 667.164 3733.4 658.738 3748.11 649.049C3768.92 634.818 3774.92 649.327 3789.41 665.961C3781.7 673.323 3775.95 679.75 3766.59 684.86C3761.94 690.717 3745.73 697.826 3738.84 700.419C3668.96 726.68 3591.57 695.372 3568.74 621.813C3555.67 579.728 3557.82 526.105 3579.2 487.182C3594.7 458.606 3621.22 437.62 3652.59 429.106ZM3721.16 476.214C3702.84 463.754 3686.17 464.02 3665.03 466.373C3623.71 481.249 3613.81 502.969 3604.69 544.094L3693.74 544.372C3706.95 544.536 3735.85 545.978 3747 542.55C3761.67 523.246 3738.12 487.776 3721.16 476.214Z" fill="#53ACDD"/>
<path d="M543.414 91.0284C608.978 103.375 678.539 149.66 664.409 228.747C657.35 268.252 624.296 292.894 592.166 313.399C594.835 337.51 597.352 355.548 603.108 378.925C583.842 365.225 549.487 339.306 528.397 327.453C526.147 327.782 523.896 328.098 521.646 328.427C518.712 328.655 515.776 328.87 512.84 329.06C444.829 333.639 396.259 323.215 344.228 277.512C454.301 279.346 559.251 213.592 543.414 91.0284Z" fill="#53ACDD"/>
<path d="M1291.78 317.131C1306.87 316.435 1323.69 314.5 1338.62 317.118C1344.44 318.13 1354.62 320.951 1357.72 326.479C1374.53 356.484 1349.58 608.595 1368.29 636.538C1378.16 644.495 1382.12 636.285 1393.54 643.533C1401.28 660.8 1399.29 674.487 1398.34 693.475C1397.97 700.849 1393.39 701.722 1387.61 704.885C1356.16 710.957 1309.12 709.388 1291.8 679.724C1278.54 657.018 1279.73 597.944 1280.31 572.138C1282.19 488.877 1277.29 405.844 1282.1 323.139C1282.26 320.243 1289.21 318.294 1291.78 317.131Z" fill="#247FB8"/>
<path d="M2046.31 316.954C2056.75 316.511 2106.17 312.362 2110.46 327.2C2124.36 375.269 2103.37 605.103 2118.63 634.084C2130.62 642.977 2130.16 638.245 2141.01 640.573C2155.64 643.698 2152.04 684.822 2149.86 695.815C2148.49 702.798 2142.38 703.405 2136.92 705.403C2082.8 713.815 2035.94 700.242 2034.32 637.904C2031.65 534.935 2031.72 431.333 2033.19 328.338C2033.27 322.279 2041.93 319.256 2046.31 316.954Z" fill="#247FB8"/>
<path d="M2979.57 426.324C2982.29 426.4 2985.03 426.514 2987.75 426.653C3106.31 433.003 3056.65 613.047 3066.19 691.476C3067.68 703.721 3041.57 705.441 3031.88 703.266C3011.45 698.686 3021.77 672.147 3019.15 656.537C3015.55 607.671 3030.25 533.252 3008.48 489.813C2988.68 450.282 2940.74 468.675 2911.68 488.08C2900.11 500.565 2897.83 504.335 2889.17 518.667C2888.29 579.981 2887.79 641.294 2887.66 702.608C2870.8 704.062 2859.21 703.518 2842.34 702.886C2837.67 625.368 2840.69 512.912 2840.16 433.446C2883.73 431.991 2883 433.724 2886.08 477.353C2912.33 440.871 2936.07 429.954 2979.57 426.324Z" fill="#53ACDD"/>
<path d="M3449.53 316.928C3467.96 316.043 3491.89 310.996 3492.16 337.459C3493.09 433.306 3488.42 529.255 3491.36 625.153C3491.76 638.423 3491.14 650.959 3501.37 660.471C3509.9 664.633 3519.1 662.217 3528.83 661.003C3529.92 675.234 3531.8 688.807 3529.13 702.709C3443.59 725.441 3441.15 654.311 3444.48 593.149C3446.6 554.086 3437.62 332.69 3449.53 316.928Z" fill="#53ACDD"/>
<path d="M521.866 530.318C539.958 524.612 559.723 529.129 573.533 542.145C587.334 555.149 593.027 574.617 588.397 593.01C583.78 611.415 569.56 625.874 551.242 630.807C523.742 638.208 495.368 622.269 487.377 594.933C479.386 567.609 494.709 538.894 521.866 530.318Z" fill="#247FB8"/>
<path d="M177.224 571.126C205.142 564.118 233.435 581.145 240.314 609.101C247.193 637.044 230.035 665.266 202.053 672.008C186.346 675.803 169.77 672.071 157.205 661.914C144.64 651.743 137.518 636.323 137.936 620.169C138.54 596.856 154.605 576.806 177.224 571.126Z" fill="#247FB8"/>
</svg>
